<svg width="56" height="46" viewBox="0 0 56 46" fill="none" xmlns="http://www.w3.org/2000/svg">
<path d="M3 30.3979V15.6002C3 14.1652 4.12 13.0002 5.5 13.0002H14.465C14.7958 12.999 15.123 12.9308 15.4268 12.7998C15.7305 12.6687 16.0046 12.4775 16.2325 12.2377L23.7325 3.76754C25.3075 2.12752 28 3.29004 28 5.60757V40.393C28 42.7281 25.275 43.8806 23.71 42.2081L16.235 33.7854C16.0065 33.5388 15.7296 33.3418 15.4217 33.2067C15.1137 33.0716 14.7813 33.0014 14.445 33.0004H5.5C4.12 33.0004 3 31.8354 3 30.3979Z" stroke="white" stroke-width="5" stroke-linecap="round" stroke-linejoin="round"/>
<path d="M38 14.25C41.3325 18.6951 41.3325 27.3052 38 31.7502" stroke="white" stroke-width="5" stroke-linecap="round" stroke-linejoin="round"/>
<path d="M45.5 5.5C55.47 15.0201 55.53 31.0428 45.5 40.5005" stroke="white" stroke-width="5" stroke-linecap="round" stroke-linejoin="round"/>
</svg>
